<?xml version="1.0" encoding="UTF-8" standalone="no"?>
<svg
   xmlns:dc="http://purl.org/dc/elements/1.1/"
   xmlns:cc="http://creativecommons.org/ns#"
   xmlns:rdf="http://www.w3.org/1999/02/22-rdf-syntax-ns#"
   xmlns:svg="http://www.w3.org/2000/svg"
   xmlns="http://www.w3.org/2000/svg"
   xmlns:sodipodi="http://sodipodi.sourceforge.net/DTD/sodipodi-0.dtd"
   xmlns:inkscape="http://www.inkscape.org/namespaces/inkscape"
   height="300"
   width="215.569"
   version="1.1"
   viewBox="0 0 44.536 61.979"
   id="svg62"
   sodipodi:docname="Ligue1.svg"
   inkscape:version="0.92.4 (5da689c313, 2019-01-14)">
  <metadata
     id="metadata68">
    <rdf:RDF>
      <cc:Work
         rdf:about="">
        <dc:format>image/svg+xml</dc:format>
        <dc:type
           rdf:resource="http://purl.org/dc/dcmitype/StillImage" />
        <dc:title></dc:title>
      </cc:Work>
    </rdf:RDF>
  </metadata>
  <defs
     id="defs66" />
  <sodipodi:namedview
     pagecolor="#ffffff"
     bordercolor="#666666"
     borderopacity="1"
     objecttolerance="10"
     gridtolerance="10"
     guidetolerance="10"
     inkscape:pageopacity="0"
     inkscape:pageshadow="2"
     inkscape:window-width="1920"
     inkscape:window-height="1017"
     id="namedview64"
     showgrid="false"
     inkscape:zoom="7.6154826"
     inkscape:cx="-31.890792"
     inkscape:cy="36.568593"
     inkscape:window-x="-8"
     inkscape:window-y="-8"
     inkscape:window-maximized="1"
     inkscape:current-layer="svg62" />
  <path
     d="m 4.4980746,20.291313 c 0.6376306,-2.034211 1.6352375,-3.703004 2.9788662,-3.852296 2.5742442,-0.287423 5.5782242,4.035074 6.1042352,9.113796 0.485549,4.696424 -0.612516,9.837935 -3.186759,10.126752 -1.5710553,0.174407 -3.0263061,-0.46741 -4.1494853,-2.904918 a 8.2422516,8.2422516 0 0 0 3.9401973,-0.219055 32.252543,32.252543 0 0 0 0.777157,-7.202299 21.1079,21.1079 0 0 0 -3.3667487,-6.213065 13.470477,13.470477 0 0 0 -3.0974627,1.151085"
     id="path4"
     inkscape:connector-curvature="0"
     style="fill:#12233f;stroke-width:1.39525366" />
  <path
     d="m 6.5617805,30.161644 c -1.0157447,0.124247 -2.0273037,-1.386882 -2.265892,-3.369538 -0.2413789,-1.982655 0.3892757,-3.68626 1.4008343,-3.807648 1.012955,-0.121386 2.0286986,1.385487 2.2658926,3.368143 0.237193,1.98405 -0.3892764,3.687656 -1.4008349,3.809043"
     id="path6"
     inkscape:connector-curvature="0"
     style="fill:#12233f;stroke-width:1.39525366" />
  <path
     d="m 29.684217,20.418713 a 3.321192,3.321192 0 1 1 -3.684865,-2.978797 3.3496272,3.3496272 0 0 1 3.684865,2.978797"
     id="path8"
     inkscape:connector-curvature="0"
     style="fill:#12233f;stroke-width:1.39525366" />
  <path
     d="M 35.745618,19.751057 A 9.9927088,9.9927088 0 0 0 24.94775,10.654002 9.9911183,9.9911183 0 0 0 16.491118,21.959743 10.165413,10.165413 0 0 0 25.095646,31.04703 c 0,0 -0.08232,-0.972492 -0.200916,-1.939403 -0.108829,-0.961329 -0.241379,-1.910102 -0.241379,-1.910102 l -1.152479,0.121387 a 21.061661,21.061661 0 0 1 -2.36356,-2.738883 18.162993,18.162993 0 0 1 -1.645005,-2.966309 c 0,0 0.489734,-1.738486 1.134342,-3.343028 0.662746,-1.628261 1.476179,-3.121182 1.476179,-3.121182 a 30.939889,30.939889 0 0 1 3.150482,-0.551125 c 1.711977,-0.195336 3.479763,-0.209289 3.479763,-0.209289 a 22.078856,22.078856 0 0 1 2.190547,2.590987 26.216816,26.216816 0 0 1 1.826387,3.116997 15.216036,15.216036 0 0 1 -0.869242,3.197921 21.258559,21.258559 0 0 1 -1.749648,3.264892 l -1.038069,0.170222 c 0,0 0.140921,0.915287 0.209288,1.854292 0.07674,0.98777 0.122783,1.964518 0.122783,1.964518 a 10.164562,10.164562 0 0 0 6.320499,-10.797868"
     id="path10"
     inkscape:connector-curvature="0"
     style="fill:#12233f;stroke-width:1.39525366" />
  <path
     d="M 33.808028,11.317458 C 31.359358,9.1143534 29.337636,7.3884247 29.364145,7.2810737 a 7.0137586,7.0137586 0 0 1 1.569661,0.703208 17.607641,17.607641 0 0 1 3.54813,2.4514603 16.100767,16.100767 0 0 1 3.8216,4.742468 47.001909,47.001909 0 0 1 -4.495508,-3.860667"
     id="path12"
     inkscape:connector-curvature="0"
     style="fill:#12233f;stroke-width:1.39525366" />
  <path
     d="M 16.253505,6.9055985 A 19.20854,19.20854 0 0 0 12.789091,8.5464154 19.181947,19.181947 0 0 0 19.321668,6.1214659 17.639467,17.639467 0 0 0 16.253505,6.9055985"
     id="path14"
     inkscape:connector-curvature="0"
     style="fill:#12233f;stroke-width:1.39525366" />
  <path
     d="m 25.214368,6.323708 a 7.1989646,7.1989646 0 0 0 -3.919267,-0.4269477 3.5983591,3.5983591 0 0 1 1.199918,0.4032283 l -4.760606,2.1403177 -5.69403,1.4915264 A 1.2471614,1.2471614 0 0 1 11.326014,9.538371 c -1.4761783,1.127364 -2.4165803,2.140319 -2.3900703,2.383093 0.05302,0.485549 3.9360113,-0.412995 8.4301223,-1.9603316 4.499694,-1.5446291 8.010152,-3.1742002 7.848302,-3.6375081"
     id="path16"
     inkscape:connector-curvature="0"
     style="fill:#12233f;stroke-width:1.39525366" />
  <path
     d="m 38.014858,26.345053 c 0.587401,-4.174516 1.432926,-7.587389 1.844525,-7.446469 a 15.044699,15.044699 0 0 1 0.738089,7.923646 c -0.505081,3.499296 -2.161248,7.228808 -2.86306,7.186951 -0.432529,-0.02651 -0.302771,-3.493716 0.280446,-7.664128"
     id="path18"
     inkscape:connector-curvature="0"
     style="fill:#12233f;stroke-width:1.39525366" />
  <path
     d="m 19.282462,42.066269 c -2.092881,-0.426948 -3.143507,-1.245878 -3.432325,-2.383024 -0.644607,-2.508666 3.432325,-4.826182 8.478957,-5.596363 4.612708,-0.704603 8.579414,0.775761 8.996595,2.490529 0.323699,1.332466 -0.295793,2.405416 -2.060789,3.570454 a 8.7632532,8.7632532 0 0 0 0.07953,-2.885386 51.234829,51.234829 0 0 0 -6.659545,-1.072949 26.258868,26.258868 0 0 0 -6.295384,3.150483 7.4482964,7.4482964 0 0 0 0.892962,2.726325"
     id="path20"
     inkscape:connector-curvature="0"
     style="fill:#12233f;stroke-width:1.39525366" />
  <path
     d="m 28.852367,39.871186 c 0.147897,0.891567 -1.332467,1.87243 -3.306751,2.187827 -1.977074,0.316723 -3.687655,-0.150687 -3.828576,-1.04644 -0.147897,-0.892962 1.336653,-1.875221 3.309542,-2.189153 1.967307,-0.315328 3.684864,0.153478 3.825785,1.047835"
     id="path22"
     inkscape:connector-curvature="0"
     style="fill:#12233f;stroke-width:1.39525366" />
  <polygon
     points="8.245,36.871 8.245,40.496 9.729,40.496 9.729,41.56 7.024,41.56 7.024,36.871 "
     id="polygon32"
     transform="matrix(1.3952536,0,0,1.3952536,-8.5539649,-2.8398856)"
     style="fill:#12233f" />
  <rect
     x="7.7760692"
     y="48.604553"
     width="1.7063953"
     height="6.5423865"
     id="rect34"
     style="fill:#12233f;stroke-width:1.39525366" />
  <path
     d="m 15.699031,48.367317 a 3.1800621,3.1800621 0 0 1 2.953752,1.640819 l -1.368743,0.750646 a 1.7939892,1.7939892 0 0 0 -1.603147,-0.904124 c -1.118993,0 -1.624075,0.909706 -1.624075,2.099857 0,1.109226 0.510663,1.996608 1.776158,1.996608 a 1.4552496,1.4552496 0 0 0 1.451064,-1.160851 h -1.498503 v -1.367349 h 3.273265 v 0.35858 a 3.168314,3.168314 0 0 1 -3.345818,3.603941 3.3508691,3.3508691 0 0 1 -3.414186,-3.497901 3.4074326,3.4074326 0 0 1 3.400233,-3.520226"
     id="path36"
     inkscape:connector-curvature="0"
     style="fill:#12233f;stroke-width:1.39525366" />
  <path
     d="m 23.525567,48.605068 v 4.014145 a 1.0596533,1.0596533 0 0 0 1.177595,1.177595 1.0470541,1.0470541 0 0 0 1.163641,-1.091089 v -4.100651 h 1.724534 v 4.185762 c 0,1.494317 -1.018536,2.54363 -2.924452,2.54363 -1.439902,0 -2.849108,-0.750646 -2.849108,-2.356582 v -4.372725 z"
     id="path38"
     inkscape:connector-curvature="0"
     style="fill:#12233f;stroke-width:1.39525366" />
  <polygon
     points="29.399,40.518 30.917,40.518 30.917,41.56 28.175,41.56 28.175,36.871 30.891,36.871 30.891,37.936 29.399,37.936 29.399,38.696 30.805,38.696 30.805,39.735 29.399,39.735 "
     id="polygon40"
     transform="matrix(1.3952536,0,0,1.3952536,-8.5539649,-2.8398856)"
     style="fill:#12233f" />
  <polygon
     points="37.489,41.56 36.262,41.56 36.262,37.876 35.589,37.876 35.589,36.871 37.489,36.871 "
     id="polygon42"
     transform="matrix(1.3952536,0,0,1.3952536,-8.5539649,-2.8398856)"
     style="fill:#12233f" />
  <path
     id="path70"
     d="m 4.4980746,20.291313 c 0.6376306,-2.034211 1.6352375,-3.703004 2.9788662,-3.852296 2.5742442,-0.287423 5.5782242,4.035074 6.1042352,9.113796 0.485549,4.696424 -0.612516,9.837935 -3.186759,10.126752 -1.5710553,0.174407 -3.0263061,-0.46741 -4.1494853,-2.904918 a 8.2422516,8.2422516 0 0 0 3.9401973,-0.219055 32.252543,32.252543 0 0 0 0.777157,-7.202299 21.1079,21.1079 0 0 0 -3.3667487,-6.213065 13.470477,13.470477 0 0 0 -3.0974627,1.151085"
     inkscape:connector-curvature="0"
     style="fill:#12233f;stroke-width:1.39525366" />
  <path
     id="path72"
     d="m 6.5617805,30.161644 c -1.0157447,0.124247 -2.0273037,-1.386882 -2.265892,-3.369538 -0.2413789,-1.982655 0.3892757,-3.68626 1.4008343,-3.807648 1.012955,-0.121386 2.0286986,1.385487 2.2658926,3.368143 0.237193,1.98405 -0.3892764,3.687656 -1.4008349,3.809043"
     inkscape:connector-curvature="0"
     style="fill:#12233f;stroke-width:1.39525366" />
  <path
     id="path74"
     d="m 29.684217,20.418713 a 3.321192,3.321192 0 1 1 -3.684865,-2.978797 3.3496272,3.3496272 0 0 1 3.684865,2.978797"
     inkscape:connector-curvature="0"
     style="fill:#12233f;stroke-width:1.39525366" />
  <path
     id="path76"
     d="M 35.745618,19.751057 A 9.9927088,9.9927088 0 0 0 24.94775,10.654002 9.9911183,9.9911183 0 0 0 16.491118,21.959743 10.165413,10.165413 0 0 0 25.095646,31.04703 c 0,0 -0.08232,-0.972492 -0.200916,-1.939403 -0.108829,-0.961329 -0.241379,-1.910102 -0.241379,-1.910102 l -1.152479,0.121387 a 21.061661,21.061661 0 0 1 -2.36356,-2.738883 18.162993,18.162993 0 0 1 -1.645005,-2.966309 c 0,0 0.489734,-1.738486 1.134342,-3.343028 0.662746,-1.628261 1.476179,-3.121182 1.476179,-3.121182 a 30.939889,30.939889 0 0 1 3.150482,-0.551125 c 1.711977,-0.195336 3.479763,-0.209289 3.479763,-0.209289 a 22.078856,22.078856 0 0 1 2.190547,2.590987 26.216816,26.216816 0 0 1 1.826387,3.116997 15.216036,15.216036 0 0 1 -0.869242,3.197921 21.258559,21.258559 0 0 1 -1.749648,3.264892 l -1.038069,0.170222 c 0,0 0.140921,0.915287 0.209288,1.854292 0.07674,0.98777 0.122783,1.964518 0.122783,1.964518 a 10.164562,10.164562 0 0 0 6.320499,-10.797868"
     inkscape:connector-curvature="0"
     style="fill:#12233f;stroke-width:1.39525366" />
  <path
     id="path78"
     d="M 33.808028,11.317458 C 31.359358,9.1143534 29.337636,7.3884247 29.364145,7.2810737 a 7.0137586,7.0137586 0 0 1 1.569661,0.703208 17.607641,17.607641 0 0 1 3.54813,2.4514603 16.100767,16.100767 0 0 1 3.8216,4.742468 47.001909,47.001909 0 0 1 -4.495508,-3.860667"
     inkscape:connector-curvature="0"
     style="fill:#12233f;stroke-width:1.39525366" />
  <path
     id="path80"
     d="M 16.253505,6.9055985 A 19.20854,19.20854 0 0 0 12.789091,8.5464154 19.181947,19.181947 0 0 0 19.321668,6.1214659 17.639467,17.639467 0 0 0 16.253505,6.9055985"
     inkscape:connector-curvature="0"
     style="fill:#12233f;stroke-width:1.39525366" />
  <path
     id="path82"
     d="m 25.214368,6.323708 a 7.1989646,7.1989646 0 0 0 -3.919267,-0.4269477 3.5983591,3.5983591 0 0 1 1.199918,0.4032283 l -4.760606,2.1403177 -5.69403,1.4915264 A 1.2471614,1.2471614 0 0 1 11.326014,9.538371 c -1.4761783,1.127364 -2.4165803,2.140319 -2.3900703,2.383093 0.05302,0.485549 3.9360113,-0.412995 8.4301223,-1.9603316 4.499694,-1.5446291 8.010152,-3.1742002 7.848302,-3.6375081"
     inkscape:connector-curvature="0"
     style="fill:#12233f;stroke-width:1.39525366" />
  <path
     id="path84"
     d="m 38.014858,26.345053 c 0.587401,-4.174516 1.432926,-7.587389 1.844525,-7.446469 a 15.044699,15.044699 0 0 1 0.738089,7.923646 c -0.505081,3.499296 -2.161248,7.228808 -2.86306,7.186951 -0.432529,-0.02651 -0.302771,-3.493716 0.280446,-7.664128"
     inkscape:connector-curvature="0"
     style="fill:#12233f;stroke-width:1.39525366" />
  <path
     id="path86"
     d="m 19.282462,42.066269 c -2.092881,-0.426948 -3.143507,-1.245878 -3.432325,-2.383024 -0.644607,-2.508666 3.432325,-4.826182 8.478957,-5.596363 4.612708,-0.704603 8.579414,0.775761 8.996595,2.490529 0.323699,1.332466 -0.295793,2.405416 -2.060789,3.570454 a 8.7632532,8.7632532 0 0 0 0.07953,-2.885386 51.234829,51.234829 0 0 0 -6.659545,-1.072949 26.258868,26.258868 0 0 0 -6.295384,3.150483 7.4482964,7.4482964 0 0 0 0.892962,2.726325"
     inkscape:connector-curvature="0"
     style="fill:#12233f;stroke-width:1.39525366" />
  <path
     id="path88"
     d="m 28.852367,39.871186 c 0.147897,0.891567 -1.332467,1.87243 -3.306751,2.187827 -1.977074,0.316723 -3.687655,-0.150687 -3.828576,-1.04644 -0.147897,-0.892962 1.336653,-1.875221 3.309542,-2.189153 1.967307,-0.315328 3.684864,0.153478 3.825785,1.047835"
     inkscape:connector-curvature="0"
     style="fill:#12233f;stroke-width:1.39525366" />
  <polygon
     id="polygon90"
     points="8.245,36.871 8.245,40.496 9.729,40.496 9.729,41.56 7.024,41.56 7.024,36.871 "
     transform="matrix(1.3952536,0,0,1.3952536,-8.5539649,-2.8398856)"
     style="fill:#12233f" />
  <rect
     id="rect92"
     height="6.5423865"
     width="1.7063953"
     y="48.604553"
     x="7.7760692"
     style="fill:#12233f;stroke-width:1.39525366" />
  <path
     id="path94"
     d="m 15.699031,48.367317 a 3.1800621,3.1800621 0 0 1 2.953752,1.640819 l -1.368743,0.750646 a 1.7939892,1.7939892 0 0 0 -1.603147,-0.904124 c -1.118993,0 -1.624075,0.909706 -1.624075,2.099857 0,1.109226 0.510663,1.996608 1.776158,1.996608 a 1.4552496,1.4552496 0 0 0 1.451064,-1.160851 h -1.498503 v -1.367349 h 3.273265 v 0.35858 a 3.168314,3.168314 0 0 1 -3.345818,3.603941 3.3508691,3.3508691 0 0 1 -3.414186,-3.497901 3.4074326,3.4074326 0 0 1 3.400233,-3.520226"
     inkscape:connector-curvature="0"
     style="fill:#12233f;stroke-width:1.39525366" />
  <path
     id="path96"
     d="m 23.525567,48.605068 v 4.014145 a 1.0596533,1.0596533 0 0 0 1.177595,1.177595 1.0470541,1.0470541 0 0 0 1.163641,-1.091089 v -4.100651 h 1.724534 v 4.185762 c 0,1.494317 -1.018536,2.54363 -2.924452,2.54363 -1.439902,0 -2.849108,-0.750646 -2.849108,-2.356582 v -4.372725 z"
     inkscape:connector-curvature="0"
     style="fill:#12233f;stroke-width:1.39525366" />
  <polygon
     id="polygon98"
     points="29.399,40.518 30.917,40.518 30.917,41.56 28.175,41.56 28.175,36.871 30.891,36.871 30.891,37.936 29.399,37.936 29.399,38.696 30.805,38.696 30.805,39.735 29.399,39.735 "
     transform="matrix(1.3952536,0,0,1.3952536,-8.5539649,-2.8398856)"
     style="fill:#12233f" />
  <polygon
     id="polygon100"
     points="37.489,41.56 36.262,41.56 36.262,37.876 35.589,37.876 35.589,36.871 37.489,36.871 "
     transform="matrix(1.3952536,0,0,1.3952536,-8.5539649,-2.8398856)"
     style="fill:#12233f" />
</svg>
