<?xml version="1.0" encoding="utf-8"?>
<svg id="master-artboard" viewBox="0 0 467 467" version="1.1" xmlns="http://www.w3.org/2000/svg" x="0px" y="0px" style="enable-background:new 0 0 1400 980;" width="467px" height="467px"><defs><clipPath id="clip0_82_13252">
      <path d="M 0 0 H 510 V 76.050003 H 0 V 0 Z" fill="white" id="svg_1"/>
    </clipPath><linearGradient id="paint0_linear_82_13252" x1="0" x2="1.000403" y1="0.500392" y2="0.500392">
      <stop stop-color="#02AFFF"/>
      <stop offset="1" stop-color="#1F5BD7"/>
    </linearGradient></defs><rect id="ee-background" x="0" y="0" width="1400.8140869140625" height="466.9726257324219" style="fill: white; fill-opacity: 0; pointer-events: none;"/>


<g transform="matrix(4.737299919128418, 0, 0, 4.737299919128418, -9.428071737289429, -5.3137054443359375)"><g class="layer" transform="matrix(1, 0, 0, 1, 2.366796, 0.998195)">
    <title>Layer 1</title>
    <g clip-path="url(#clip0_82_13252)" id="svg_2">
      <path d="m65.5205,16.3156c1.1156,-2.3269 4.3882,-7.96888 1.445,-12.81929c-0.3375,-0.55777 -0.7854,-1.04063 -1.3164,-1.41892c-0.5309,-0.37829 -1.1335,-0.64402 -1.7709,-0.78085c-0.6374,-0.13683 -1.296,-0.14188 -1.9354,-0.01483c-0.6394,0.12705 -1.2461,0.38352 -1.7828,0.75363c-2.2685,1.55659 -4.5316,3.12913 -6.8479,4.78135c-2.541,-0.91914 -5.2144,-1.41972 -7.9158,-1.48222c-3.4267,-0.05312 -6.8639,-0.05313 -10.2852,-0.01062c-2.7015,0.06156 -5.3751,0.56217 -7.9158,1.48221c-2.3216,-1.64159 -4.5795,-3.18756 -6.8533,-4.78135c-0.5373,-0.36965 -1.1445,-0.62547 -1.7844,-0.75173c-0.6398,-0.12626 -1.2987,-0.12028 -1.9362,0.01756c-0.6374,0.13784 -1.2399,0.40463 -1.7705,0.78396c-0.5305,0.37933 -0.9778,0.86319 -1.3143,1.42181c-2.9432,4.82916 0.3346,10.49239 1.445,12.81929c-1.1959,1.7728 -2.1583,3.6923 -2.8635,5.7111c-2.98228,8.6003 -5.51626,17.3495 -7.59173,26.2124c11.14143,9.661 23.09473,18.3439 35.72733,25.9521c12.628,-7.61 24.5776,-16.2928 35.7167,-25.9521c-2.078,-8.8622 -4.6119,-17.6114 -7.5918,-26.2124c-0.707,-2.019 -1.6712,-3.9385 -2.8688,-5.7111" fill="#050909" id="svg_7"/>
      <path d="m4.52634,48.2391c2.07797,-8.8622 4.61191,-17.6113 7.59176,-26.2124c0.7052,-2.0188 1.6676,-3.9383 2.8635,-5.7111c-1.1104,-2.3269 -4.3883,-7.96887 -1.4451,-12.81928c0.3312,-0.5463 0.7686,-1.02069 1.2862,-1.39513c0.5176,-0.37445 1.1051,-0.64136 1.7276,-0.78498c0.6225,-0.14362 1.2675,-0.16103 1.8968,-0.0512c0.6294,0.10983 1.2303,0.34467 1.7674,0.69065l-0.0266,-0.02656c-1.8913,-1.21659 -3.1875,-1.77973 -5.5517,-1.20065c-3.8888,0.96689 -8.09638,5.20104 -4.5422,13.76495c0.2975,0.7172 0.6056,1.4238 0.919,2.1251c-2.02406,2.6828 -3.24596,5.4826 -4.36692,8.9092l2.12504,0c-0.87127,2.6563 -1.70535,5.3126 -2.51286,8.1124l-2.12505,0c-1.2219,4.2501 -2.39599,8.7073 -3.58601,13.6481l-0.5472,2.4225l1.8966,1.5938c5.65793,4.8238 10.758,8.9146 15.906,12.7503l6.9064,0c-6.8374,-4.8133 -13.1009,-9.7646 -20.18797,-15.8157" fill="#2580C3" id="svg_8"/>
      <path d="m20.5811,66.0842c4.9301,3.5435 10.0089,6.9064 15.7518,10.4552c1.3069,-0.781 2.6138,-1.5513 3.9208,-2.3482c-4.5955,-2.8104 -8.7127,-5.456 -12.6016,-8.107l-7.071,0z" fill="#2580C3" id="svg_9"/>
      <path d="m70.5834,57.9718c4.2501,-3.4107 7.4376,-6.136 9.9239,-8.2611c-0.6481,-2.6935 -1.1741,-4.8876 -1.9656,-7.9689l-0.8926,0c-1.5141,-5.8439 -3.0441,-11.0981 -4.7335,-16.2194l1.9922,0c-0.8181,-2.4066 -1.7106,-5.3976 -4.351,-8.9093c1.0625,-2.4278 2.0507,-4.6379 2.2154,-7.31011l-1.0626,0c0.3188,-4.64853 -2.3481,-7.74047 -5.9395,-8.5958c-2.2631,-0.53126 -3.5647,0 -5.456,1.22721c0.5373,-0.34683 1.1386,-0.58236 1.7685,-0.69265c0.6299,-0.11029 1.2756,-0.0931 1.8987,0.05055c0.6232,0.14365 1.2112,0.41084 1.7292,0.78577c0.5181,0.37492 0.9556,0.84995 1.2869,1.39699c2.9378,4.82916 -0.3347,10.49244 -1.4504,12.81934c1.1976,1.7726 2.1618,3.6921 2.8688,5.711c2.968,8.6088 5.4895,17.365 7.5546,26.2337c-11.1415,9.661 -23.0948,18.3439 -35.7274,25.9521c1.2963,0.7969 2.5979,1.5938 3.9048,2.3588c8.2685,-5.0573 16.2415,-10.5826 23.8802,-16.5488l-3.3151,0c0.866,-0.664 1.7373,-1.3441 2.6085,-2.0294l3.262,0z" fill="#E6333A" id="svg_10"/>
      <path d="m32.5982,26.2343c-0.0049,-0.0288 -0.0173,-0.0557 -0.0359,-0.0781c-0.0187,-0.0224 -0.043,-0.0395 -0.0704,-0.0494l-4.9726,-1.5938c-0.0265,-0.008 -0.0547,-0.0089 -0.0817,-0.0027c-0.027,0.0062 -0.0519,0.0193 -0.0723,0.0381c-0.0204,0.0187 -0.0355,0.0425 -0.0439,0.0689c-0.0084,0.0264 -0.0098,0.0546 -0.004,0.0817l1.0254,4.8291c0.006,0.0271 0.019,0.0521 0.0376,0.0725c0.0186,0.0205 0.0423,0.0358 0.0686,0.0444c0.024,0.0117 0.0504,0.0178 0.0771,0.0178c0.0267,0 0.053,-0.0061 0.077,-0.0178c1.5938,-1.3547 2.821,-2.3588 3.9313,-3.1876c0.0238,-0.0173 0.0424,-0.0408 0.0536,-0.068c0.0113,-0.0272 0.0148,-0.057 0.0102,-0.086" fill="white" id="svg_11"/>
      <path d="m52.9774,24.4917l-4.9673,1.5938c-0.0274,0.01 -0.0517,0.027 -0.0704,0.0494c-0.0187,0.0224 -0.031,0.0494 -0.0359,0.0781c-0.0054,0.0278 -0.0028,0.0566 0.0076,0.0829c0.0103,0.0264 0.028,0.0492 0.0509,0.0659c1.1156,0.8553 2.3375,1.8594 3.9366,3.1876c0.021,0.0177 0.0461,0.0299 0.073,0.0355c0.0269,0.0055 0.0548,0.0043 0.0811,-0.0037c0.0263,-0.0085 0.05,-0.0238 0.0686,-0.0443c0.0186,-0.0205 0.0316,-0.0455 0.0376,-0.0725l1.0254,-4.8292c0.0062,-0.0277 0.005,-0.0565 -0.0036,-0.0836c-0.0086,-0.027 -0.0243,-0.0513 -0.0454,-0.0702c-0.0212,-0.019 -0.047,-0.032 -0.0748,-0.0376c-0.0278,-0.0056 -0.0566,-0.0038 -0.0834,0.0054" fill="white" id="svg_12"/>
      <path d="m42.9047,26.0696c-0.2689,-0.4668 -0.6559,-0.8544 -1.1222,-1.124c-0.4664,-0.2696 -0.9955,-0.4115 -1.5341,-0.4115c-0.5387,0 -1.0678,0.1419 -1.5341,0.4115c-0.4663,0.2696 -0.8534,0.6572 -1.1222,1.124c-0.3507,0.6056 -2.0666,3.5648 -5.0205,8.6861c-0.4876,0.8487 -0.7441,1.8104 -0.7437,2.7891c0,3.8145 0,7.4377 0.0319,10.094c0.0265,8.3992 16.7825,8.3567 16.7878,-0.0372c0,-2.5766 0,-6.1786 0,-10.0302c0.0012,-0.9772 -0.2554,-1.9374 -0.7438,-2.7838l-4.9991,-8.718zm0.6587,23.6146c-0.0118,0.0272 -0.031,0.0506 -0.0554,0.0674c-0.0244,0.0169 -0.053,0.0267 -0.0827,0.0282c-2.1212,0.1803 -4.2539,0.1803 -6.3751,0c-0.0287,-0.0025 -0.0563,-0.0126 -0.0796,-0.0295c-0.0234,-0.0168 -0.0418,-0.0397 -0.0532,-0.0661c-0.8345,-1.9916 -1.5009,-4.0494 -1.9923,-6.152c-0.0052,-0.0289 -0.003,-0.0587 0.0063,-0.0865c0.0092,-0.0279 0.0254,-0.0529 0.0469,-0.0729c1.6197,-1.4002 3.3542,-2.662 5.1851,-3.772c0.0256,-0.0154 0.055,-0.0236 0.085,-0.0236c0.0299,0 0.0593,0.0082 0.085,0.0236c1.8309,1.11 3.5653,2.3718 5.1851,3.772c0.0223,0.0193 0.039,0.0443 0.0484,0.0724c0.0093,0.028 0.011,0.0581 0.0047,0.087c-0.4965,2.1031 -1.1683,4.1609 -2.0082,6.152" fill="white" id="svg_13"/>
    </g>
  </g></g></svg>